# xmcd CD database file
#
# Track frame offsets:
#	150
#	14645
#	32830
#	48137
#	62842
#	79182
#	96042
#	111070
#	124255
#	140635
#	155717
#	170407
#	189575
#	206415
#	223212
#
# Disc length: 3163 seconds
#
# Revision: 6
# Processed by: cddbd v1.5.2PL0 Copyright (c) Steve Scherf et al.
# Submitted via: CDex 1.51
#
DISCID=da0c590f
DTITLE=Almir Sater - Varandas
DYEAR=1990
DGENRE=Country
TTITLE0=Peâo
TTITLE1=Doma
TTITLE2=Trem De Lata
TTITLE3=Varandas
TTITLE4=Boeiro Do Nabileque
TTITLE5=Agua Que Correu
TTITLE6=Razoes
TTITLE7=Benzinho
TTITLE8=Galopada
TTITLE9=Trem Do Pantanal
TTITLE10=O Ultimo Condor
TTITLE11=Sonhos Guaranis
TTITLE12=Cavaleiro Da Lua
TTITLE13=Na Subida Do Balao
TTITLE14=Viola E Vinho Velho
EXTD=YEAR: 1990
EXTT0=
EXTT1=
EXTT2=
EXTT3=
EXTT4=
EXTT5=
EXTT6=
EXTT7=
EXTT8=
EXTT9=
EXTT10=
EXTT11=
EXTT12=
EXTT13=
EXTT14=
PLAYORDER=
